<svg width="200" height="200" viewBox="0 0 200 200" xmlns="http://www.w3.org/2000/svg">
  <defs>
    <linearGradient id="brainGradient" x1="0%" y1="0%" x2="100%" y2="100%">
      <stop offset="0%" style="stop-color:#667eea;stop-opacity:1" />
      <stop offset="100%" style="stop-color:#764ba2;stop-opacity:1" />
    </linearGradient>
  </defs>
  
  <!-- Brain shape -->
  <path d="M100 30 C120 30, 140 40, 150 60 C160 80, 155 100, 150 120 C145 140, 135 155, 120 165 C105 175, 95 175, 80 165 C65 155, 55 140, 50 120 C45 100, 40 80, 50 60 C60 40, 80 30, 100 30 Z" fill="url(#brainGradient)" stroke="#4a5568" stroke-width="2"/>
  
  <!-- Neural connections -->
  <circle cx="80" cy="70" r="3" fill="#ffffff" opacity="0.8"/>
  <circle cx="120" cy="80" r="3" fill="#ffffff" opacity="0.8"/>
  <circle cx="90" cy="110" r="3" fill="#ffffff" opacity="0.8"/>
  <circle cx="110" cy="130" r="3" fill="#ffffff" opacity="0.8"/>
  
  <!-- Connecting lines -->
  <line x1="80" y1="70" x2="120" y2="80" stroke="#ffffff" stroke-width="1" opacity="0.6"/>
  <line x1="120" y1="80" x2="110" y2="130" stroke="#ffffff" stroke-width="1" opacity="0.6"/>
  <line x1="90" y1="110" x2="110" y2="130" stroke="#ffffff" stroke-width="1" opacity="0.6"/>
  <line x1="80" y1="70" x2="90" y2="110" stroke="#ffffff" stroke-width="1" opacity="0.6"/>
  
  <!-- Text -->
  <text x="100" y="190" text-anchor="middle" font-family="Arial, sans-serif" font-size="16" font-weight="bold" fill="#4a5568">BrainiX</text>
</svg>
